<svg width="1030" height="200" xmlns="http://www.w3.org/2000/svg">
    <style>
        g.numbers {
            stroke: black;
            stroke-width: 1;
            stroke-linecap: round;
            stroke-linejoin: round;
            fill: red;
        }

        g.numbers path.bg {
            fill: #200;
        }
    </style>

    <rect width="1030" height="200" />

    <g class="numbers" transform="translate(40, 40)">
        <!-- 0 ~ 3 -->
        <g transform="translate(0, 0)">
            <path d="M-5 -5 L65 -5 L60 0 L51.910 5 L8.090 5 L0 0 Z" />
            <path d="M65 -5 L65 60 L60 60 L55 55 L55 21.180 L60 0 Z" />
            <path d="M65 60 L65 125 L60 120 L55 98.820 L55 65 L60 60 Z" />
            <path d="M65 125 L-5 125 L0 120 L8.090 115 L51.910 115 L60 120 Z" />
            <path d="M-5 125 L-5 60 L0 60 L5 65 L5 98.820 L0 120 Z" />
            <path d="M-5 60 L-5 -5 L0 0 L5 21.180 L5 55 L 0 60 Z" />
            <path d="M0 0 L8.090 5 L30 48.820 L30 60 L21.910 55 L5 21.180 Z" class="bg" />
            <path d="M60 0 L55 21.180 L38.090 55 L30 60 L30 48.820 L51.910 5 Z" />
            <path d="M60 60 L55 65 L38.090 65 L30 60 L38.090 55 L55 55 Z" class="bg" />
            <path d="M60 120 L51.910 115 L30 71.180 L30 60 L38.090 65 L55 98.820 Z" class="bg" />
            <path d="M0 120 L5 98.820 L21.910 65 L30 60 L30 71.180 L8.090 115 Z" />
            <path d="M0 60 L5 55 L21.910 55 L30 60 L21.910 65 L5 65 Z" class="bg" />
        </g>
        <circle cx="70" cy="120" r="4" fill="red" />
        <g transform="translate(80, 0)">
            <path d="M-5 -5 L65 -5 L60 0 L51.910 5 L8.090 5 L0 0 Z" class="bg" />
            <path d="M65 -5 L65 60 L60 60 L55 55 L55 21.180 L60 0 Z" />
            <path d="M65 60 L65 125 L60 120 L55 98.820 L55 65 L60 60 Z" />
            <path d="M65 125 L-5 125 L0 120 L8.090 115 L51.910 115 L60 120 Z" class="bg" />
            <path d="M-5 125 L-5 60 L0 60 L5 65 L5 98.820 L0 120 Z" class="bg" />
            <path d="M-5 60 L-5 -5 L0 0 L5 21.180 L5 55 L 0 60 Z" class="bg" />
            <path d="M0 0 L8.090 5 L30 48.820 L30 60 L21.910 55 L5 21.180 Z" class="bg" />
            <path d="M60 0 L55 21.180 L38.090 55 L30 60 L30 48.820 L51.910 5 Z" />
            <path d="M60 60 L55 65 L38.090 65 L30 60 L38.090 55 L55 55 Z" class="bg" />
            <path d="M60 120 L51.910 115 L30 71.180 L30 60 L38.090 65 L55 98.820 Z" class="bg" />
            <path d="M0 120 L5 98.820 L21.910 65 L30 60 L30 71.180 L8.090 115 Z" class="bg" />
            <path d="M0 60 L5 55 L21.910 55 L30 60 L21.910 65 L5 65 Z" class="bg" />
        </g>
        <g transform="translate(160, 0)">
            <path d="M-5 -5 L65 -5 L60 0 L51.910 5 L8.090 5 L0 0 Z" />
            <path d="M65 -5 L65 60 L60 60 L55 55 L55 21.180 L60 0 Z" />
            <path d="M65 60 L65 125 L60 120 L55 98.820 L55 65 L60 60 Z" class="bg" />
            <path d="M65 125 L-5 125 L0 120 L8.090 115 L51.910 115 L60 120 Z" />
            <path d="M-5 125 L-5 60 L0 60 L5 65 L5 98.820 L0 120 Z" class="bg" />
            <path d="M-5 60 L-5 -5 L0 0 L5 21.180 L5 55 L 0 60 Z" class="bg" />
            <path d="M0 0 L8.090 5 L30 48.820 L30 60 L21.910 55 L5 21.180 Z" class="bg" />
            <path d="M60 0 L55 21.180 L38.090 55 L30 60 L30 48.820 L51.910 5 Z" class="bg" />
            <path d="M60 60 L55 65 L38.090 65 L30 60 L38.090 55 L55 55 Z" />
            <path d="M60 120 L51.910 115 L30 71.180 L30 60 L38.090 65 L55 98.820 Z" class="bg" />
            <path d="M0 120 L5 98.820 L21.910 65 L30 60 L30 71.180 L8.090 115 Z" />
            <path d="M0 60 L5 55 L21.910 55 L30 60 L21.910 65 L5 65 Z" class="bg" />
        </g>
        <g transform="translate(240, 0)">
            <path d="M-5 -5 L65 -5 L60 0 L51.910 5 L8.090 5 L0 0 Z" />
            <path d="M65 -5 L65 60 L60 60 L55 55 L55 21.180 L60 0 Z" class="bg" />
            <path d="M65 60 L65 125 L60 120 L55 98.820 L55 65 L60 60 Z" class="bg" />
            <path d="M65 125 L-5 125 L0 120 L8.090 115 L51.910 115 L60 120 Z" />
            <path d="M-5 125 L-5 60 L0 60 L5 65 L5 98.820 L0 120 Z" class="bg" />
            <path d="M-5 60 L-5 -5 L0 0 L5 21.180 L5 55 L 0 60 Z" class="bg" />
            <path d="M0 0 L8.090 5 L30 48.820 L30 60 L21.910 55 L5 21.180 Z" class="bg" />
            <path d="M60 0 L55 21.180 L38.090 55 L30 60 L30 48.820 L51.910 5 Z" />
            <path d="M60 60 L55 65 L38.090 65 L30 60 L38.090 55 L55 55 Z" class="bg" />
            <path d="M60 120 L51.910 115 L30 71.180 L30 60 L38.090 65 L55 98.820 Z" />
            <path d="M0 120 L5 98.820 L21.910 65 L30 60 L30 71.180 L8.090 115 Z" class="bg" />
            <path d="M0 60 L5 55 L21.910 55 L30 60 L21.910 65 L5 65 Z" class="bg" />
        </g>
        <!-- 4 ~ 7 -->
        <g transform="translate(320, 0)">
            <path d="M-5 -5 L65 -5 L60 0 L51.910 5 L8.090 5 L0 0 Z" class="bg" />
            <path d="M65 -5 L65 60 L60 60 L55 55 L55 21.180 L60 0 Z" />
            <path d="M65 60 L65 125 L60 120 L55 98.820 L55 65 L60 60 Z" />
            <path d="M65 125 L-5 125 L0 120 L8.090 115 L51.910 115 L60 120 Z" class="bg" />
            <path d="M-5 125 L-5 60 L0 60 L5 65 L5 98.820 L0 120 Z" class="bg" />
            <path d="M-5 60 L-5 -5 L0 0 L5 21.180 L5 55 L 0 60 Z" class="bg" />
            <path d="M0 0 L8.090 5 L30 48.820 L30 60 L21.910 55 L5 21.180 Z" />
            <path d="M60 0 L55 21.180 L38.090 55 L30 60 L30 48.820 L51.910 5 Z" class="bg" />
            <path d="M60 60 L55 65 L38.090 65 L30 60 L38.090 55 L55 55 Z" />
            <path d="M60 120 L51.910 115 L30 71.180 L30 60 L38.090 65 L55 98.820 Z" class="bg" />
            <path d="M0 120 L5 98.820 L21.910 65 L30 60 L30 71.180 L8.090 115 Z" class="bg" />
            <path d="M0 60 L5 55 L21.910 55 L30 60 L21.910 65 L5 65 Z" class="bg" />
        </g>
        <g transform="translate(400, 0)">
            <path d="M-5 -5 L65 -5 L60 0 L51.910 5 L8.090 5 L0 0 Z" />
            <path d="M65 -5 L65 60 L60 60 L55 55 L55 21.180 L60 0 Z" class="bg" />
            <path d="M65 60 L65 125 L60 120 L55 98.820 L55 65 L60 60 Z" class="bg" />
            <path d="M65 125 L-5 125 L0 120 L8.090 115 L51.910 115 L60 120 Z" />
            <path d="M-5 125 L-5 60 L0 60 L5 65 L5 98.820 L0 120 Z" class="bg" />
            <path d="M-5 60 L-5 -5 L0 0 L5 21.180 L5 55 L 0 60 Z" />
            <path d="M0 0 L8.090 5 L30 48.820 L30 60 L21.910 55 L5 21.180 Z" class="bg" />
            <path d="M60 0 L55 21.180 L38.090 55 L30 60 L30 48.820 L51.910 5 Z" class="bg" />
            <path d="M60 60 L55 65 L38.090 65 L30 60 L38.090 55 L55 55 Z" class="bg" />
            <path d="M60 120 L51.910 115 L30 71.180 L30 60 L38.090 65 L55 98.820 Z" />
            <path d="M0 120 L5 98.820 L21.910 65 L30 60 L30 71.180 L8.090 115 Z" class="bg" />
            <path d="M0 60 L5 55 L21.910 55 L30 60 L21.910 65 L5 65 Z" />
        </g>
        <g transform="translate(480, 0)">
            <path d="M-5 -5 L65 -5 L60 0 L51.910 5 L8.090 5 L0 0 Z" />
            <path d="M65 -5 L65 60 L60 60 L55 55 L55 21.180 L60 0 Z" class="bg" />
            <path d="M65 60 L65 125 L60 120 L55 98.820 L55 65 L60 60 Z" class="bg" />
            <path d="M65 125 L-5 125 L0 120 L8.090 115 L51.910 115 L60 120 Z" />
            <path d="M-5 125 L-5 60 L0 60 L5 65 L5 98.820 L0 120 Z" />
            <path d="M-5 60 L-5 -5 L0 0 L5 21.180 L5 55 L 0 60 Z" />
            <path d="M0 0 L8.090 5 L30 48.820 L30 60 L21.910 55 L5 21.180 Z" class="bg" />
            <path d="M60 0 L55 21.180 L38.090 55 L30 60 L30 48.820 L51.910 5 Z" class="bg" />
            <path d="M60 60 L55 65 L38.090 65 L30 60 L38.090 55 L55 55 Z" class="bg" />
            <path d="M60 120 L51.910 115 L30 71.180 L30 60 L38.090 65 L55 98.820 Z" />
            <path d="M0 120 L5 98.820 L21.910 65 L30 60 L30 71.180 L8.090 115 Z" class="bg" />
            <path d="M0 60 L5 55 L21.910 55 L30 60 L21.910 65 L5 65 Z" />
        </g>
        <g transform="translate(560, 0)">
            <path d="M-5 -5 L65 -5 L60 0 L51.910 5 L8.090 5 L0 0 Z" />
            <path d="M65 -5 L65 60 L60 60 L55 55 L55 21.180 L60 0 Z" class="bg" />
            <path d="M65 60 L65 125 L60 120 L55 98.820 L55 65 L60 60 Z" class="bg" />
            <path d="M65 125 L-5 125 L0 120 L8.090 115 L51.910 115 L60 120 Z" class="bg" />
            <path d="M-5 125 L-5 60 L0 60 L5 65 L5 98.820 L0 120 Z" class="bg" />
            <path d="M-5 60 L-5 -5 L0 0 L5 21.180 L5 55 L 0 60 Z" class="bg" />
            <path d="M0 0 L8.090 5 L30 48.820 L30 60 L21.910 55 L5 21.180 Z" class="bg" />
            <path d="M60 0 L55 21.180 L38.090 55 L30 60 L30 48.820 L51.910 5 Z" />
            <path d="M60 60 L55 65 L38.090 65 L30 60 L38.090 55 L55 55 Z" class="bg" />
            <path d="M60 120 L51.910 115 L30 71.180 L30 60 L38.090 65 L55 98.820 Z" class="bg" />
            <path d="M0 120 L5 98.820 L21.910 65 L30 60 L30 71.180 L8.090 115 Z" />
            <path d="M0 60 L5 55 L21.910 55 L30 60 L21.910 65 L5 65 Z" class="bg" />
        </g>
        <!-- 8 ~ E -->
        <g transform="translate(640, 0)">
            <path d="M-5 -5 L65 -5 L60 0 L51.910 5 L8.090 5 L0 0 Z" />
            <path d="M65 -5 L65 60 L60 60 L55 55 L55 21.180 L60 0 Z" class="bg" />
            <path d="M65 60 L65 125 L60 120 L55 98.820 L55 65 L60 60 Z" class="bg" />
            <path d="M65 125 L-5 125 L0 120 L8.090 115 L51.910 115 L60 120 Z" />
            <path d="M-5 125 L-5 60 L0 60 L5 65 L5 98.820 L0 120 Z" class="bg" />
            <path d="M-5 60 L-5 -5 L0 0 L5 21.180 L5 55 L 0 60 Z" class="bg" />
            <path d="M0 0 L8.090 5 L30 48.820 L30 60 L21.910 55 L5 21.180 Z" />
            <path d="M60 0 L55 21.180 L38.090 55 L30 60 L30 48.820 L51.910 5 Z" />
            <path d="M60 60 L55 65 L38.090 65 L30 60 L38.090 55 L55 55 Z" class="bg" />
            <path d="M60 120 L51.910 115 L30 71.180 L30 60 L38.090 65 L55 98.820 Z" />
            <path d="M0 120 L5 98.820 L21.910 65 L30 60 L30 71.180 L8.090 115 Z" />
            <path d="M0 60 L5 55 L21.910 55 L30 60 L21.910 65 L5 65 Z" class="bg" />
        </g>
        <g transform="translate(720, 0)">
            <path d="M-5 -5 L65 -5 L60 0 L51.910 5 L8.090 5 L0 0 Z" />
            <path d="M65 -5 L65 60 L60 60 L55 55 L55 21.180 L60 0 Z" />
            <path d="M65 60 L65 125 L60 120 L55 98.820 L55 65 L60 60 Z" />
            <path d="M65 125 L-5 125 L0 120 L8.090 115 L51.910 115 L60 120 Z" class="bg" />
            <path d="M-5 125 L-5 60 L0 60 L5 65 L5 98.820 L0 120 Z" class="bg" />
            <path d="M-5 60 L-5 -5 L0 0 L5 21.180 L5 55 L 0 60 Z" class="bg" />
            <path d="M0 0 L8.090 5 L30 48.820 L30 60 L21.910 55 L5 21.180 Z" />
            <path d="M60 0 L55 21.180 L38.090 55 L30 60 L30 48.820 L51.910 5 Z" class="bg" />
            <path d="M60 60 L55 65 L38.090 65 L30 60 L38.090 55 L55 55 Z" />
            <path d="M60 120 L51.910 115 L30 71.180 L30 60 L38.090 65 L55 98.820 Z" class="bg" />
            <path d="M0 120 L5 98.820 L21.910 65 L30 60 L30 71.180 L8.090 115 Z" class="bg" />
            <path d="M0 60 L5 55 L21.910 55 L30 60 L21.910 65 L5 65 Z" class="bg" />
        </g>
        <g transform="translate(800, 0)">
            <path d="M-5 -5 L65 -5 L60 0 L51.910 5 L8.090 5 L0 0 Z" class="bg" />
            <path d="M65 -5 L65 60 L60 60 L55 55 L55 21.180 L60 0 Z" class="bg" />
            <path d="M65 60 L65 125 L60 120 L55 98.820 L55 65 L60 60 Z" class="bg" />
            <path d="M65 125 L-5 125 L0 120 L8.090 115 L51.910 115 L60 120 Z" class="bg" />
            <path d="M-5 125 L-5 60 L0 60 L5 65 L5 98.820 L0 120 Z" class="bg" />
            <path d="M-5 60 L-5 -5 L0 0 L5 21.180 L5 55 L 0 60 Z" class="bg" />
            <path d="M0 0 L8.090 5 L30 48.820 L30 60 L21.910 55 L5 21.180 Z" />
            <path d="M60 0 L55 21.180 L38.090 55 L30 60 L30 48.820 L51.910 5 Z" />
            <path d="M60 60 L55 65 L38.090 65 L30 60 L38.090 55 L55 55 Z" class="bg" />
            <path d="M60 120 L51.910 115 L30 71.180 L30 60 L38.090 65 L55 98.820 Z" />
            <path d="M0 120 L5 98.820 L21.910 65 L30 60 L30 71.180 L8.090 115 Z" />
            <path d="M0 60 L5 55 L21.910 55 L30 60 L21.910 65 L5 65 Z" class="bg" />
        </g>
        <g transform="translate(880, 0)">
            <path d="M-5 -5 L65 -5 L60 0 L51.910 5 L8.090 5 L0 0 Z" />
            <path d="M65 -5 L65 60 L60 60 L55 55 L55 21.180 L60 0 Z" class="bg" />
            <path d="M65 60 L65 125 L60 120 L55 98.820 L55 65 L60 60 Z" class="bg" />
            <path d="M65 125 L-5 125 L0 120 L8.090 115 L51.910 115 L60 120 Z" />
            <path d="M-5 125 L-5 60 L0 60 L5 65 L5 98.820 L0 120 Z" class="bg" />
            <path d="M-5 60 L-5 -5 L0 0 L5 21.180 L5 55 L 0 60 Z" class="bg" />
            <path d="M0 0 L8.090 5 L30 48.820 L30 60 L21.910 55 L5 21.180 Z" />
            <path d="M60 0 L55 21.180 L38.090 55 L30 60 L30 48.820 L51.910 5 Z" class="bg" />
            <path d="M60 60 L55 65 L38.090 65 L30 60 L38.090 55 L55 55 Z" class="bg" />
            <path d="M60 120 L51.910 115 L30 71.180 L30 60 L38.090 65 L55 98.820 Z" class="bg" />
            <path d="M0 120 L5 98.820 L21.910 65 L30 60 L30 71.180 L8.090 115 Z" />
            <path d="M0 60 L5 55 L21.910 55 L30 60 L21.910 65 L5 65 Z" class="bg" />
        </g>
    </g>
    <!-- by NutronStar45 -->
</svg>